<svg id="Layer_1" data-name="Layer 1" xmlns="http://www.w3.org/2000/svg" viewBox="0 0 50 20"><defs><style>.cls-1{fill:#1b3a4c;}</style></defs><path class="cls-1" d="M2.71,7.54V12a.38.38,0,0,1-.37.37H2.26A.38.38,0,0,1,1.89,12V7.54a.36.36,0,0,0-.36-.36H.37A.37.37,0,0,1,0,6.81H0a.36.36,0,0,1,.37-.36h4a.36.36,0,0,1,.36.36h0a.37.37,0,0,1-.36.37H3.07A.36.36,0,0,0,2.71,7.54Z"/><path class="cls-1" d="M5.54,8.37a.42.42,0,0,1-.5.24l-.17,0A.9.9,0,0,0,4.15,9a1.38,1.38,0,0,0-.31.91V11.8a.57.57,0,0,1-.57.58h0a.2.2,0,0,1-.2-.2V8.51A.49.49,0,0,1,3.55,8h0a.29.29,0,0,1,.29.29v.07A.1.1,0,0,0,4,8.44a1.31,1.31,0,0,1,1.07-.5l.21,0a.29.29,0,0,1,.24.4Z"/><path class="cls-1" d="M8.25,12a.24.24,0,0,0-.35,0,1.87,1.87,0,0,1-1.2.36,1.26,1.26,0,0,1-1.26-1.29A1.38,1.38,0,0,1,6,9.93a2.35,2.35,0,0,1,1.48-.46l.23,0A.24.24,0,0,0,8,9.19a.82.82,0,0,0-.9-.67,1.76,1.76,0,0,0-.9.22.25.25,0,0,1-.35-.1l-.09-.18a.26.26,0,0,1,.1-.33A2.67,2.67,0,0,1,6.27,8,2.27,2.27,0,0,1,7,7.83a1.93,1.93,0,0,1,1.38.43,1.92,1.92,0,0,1,.43,1.37v1.56a.88.88,0,0,0,.25.71.24.24,0,0,1,.09.18h0a.26.26,0,0,1-.28.25,1.16,1.16,0,0,1-.43-.12A.86.86,0,0,1,8.25,12ZM8,10.33a.26.26,0,0,0-.2-.25l-.31,0a1.44,1.44,0,0,0-1,.3.87.87,0,0,0-.37.71c0,.45.26.68.8.68a1.28,1.28,0,0,0,1-.49A.25.25,0,0,0,8,11.09Z"/><path class="cls-1" d="M10.7,12.31h0a.16.16,0,0,1-.14-.09L8.92,8.32a.32.32,0,0,1,.3-.45H9.4A.25.25,0,0,1,9.64,8l.94,2.49a.16.16,0,0,0,.3,0l1-2.51a.2.2,0,0,1,.2-.14h.18a.31.31,0,0,1,.29.44l-1.68,3.91A.16.16,0,0,1,10.7,12.31Z"/><path class="cls-1" d="M16,10.12H13.78a.48.48,0,0,0-.46.63,1.28,1.28,0,0,0,1.28.9,1.65,1.65,0,0,0,1-.28.17.17,0,0,1,.23.05l.16.29a.17.17,0,0,1,0,.21,1.8,1.8,0,0,1-.44.21,2.82,2.82,0,0,1-1,.17,2,2,0,0,1-1.4-.55,2.2,2.2,0,0,1-.63-1.65,2.31,2.31,0,0,1,.65-1.73,1.89,1.89,0,0,1,1.39-.58,2,2,0,0,1,1.45.52,1.77,1.77,0,0,1,.52,1.34h0A.48.48,0,0,1,16,10.12ZM14.49,8.44a1.2,1.2,0,0,0-.86.33,1.09,1.09,0,0,0-.23.3.33.33,0,0,0,.29.49h1.57a.34.34,0,0,0,.31-.47,1.27,1.27,0,0,0-.2-.31A1.15,1.15,0,0,0,14.49,8.44Z"/><path class="cls-1" d="M16.9,11V6.43a.34.34,0,0,1,.33-.34h.11a.34.34,0,0,1,.33.34v4.44a.77.77,0,0,0,.2.55.61.61,0,0,0,.28.16.36.36,0,0,1,.25.33v0a.34.34,0,0,1-.38.34A1.17,1.17,0,0,1,16.9,11Z"/><path class="cls-1" d="M18.4,9.25a3.47,3.47,0,0,1,.65-2.16,2.06,2.06,0,0,1,1.75-.87,2.29,2.29,0,0,1,1.89.8,3.39,3.39,0,0,1,.66,2.23,3.57,3.57,0,0,1-.66,2.29,2.26,2.26,0,0,1-1.89.84A2.09,2.09,0,0,1,19,11.5,3.79,3.79,0,0,1,18.4,9.25Zm.85,0A3.33,3.33,0,0,0,19.66,11a1.25,1.25,0,0,0,1.14.68A1.44,1.44,0,0,0,22.06,11a3,3,0,0,0,.44-1.76c0-1.54-.57-2.3-1.7-2.3a1.26,1.26,0,0,0-1.15.62A3,3,0,0,0,19.25,9.25Z"/><path class="cls-1" d="M26.78,12.26a.29.29,0,0,1-.3-.29V9.73a1.66,1.66,0,0,0-.21-1,.81.81,0,0,0-.7-.28,1.08,1.08,0,0,0-.55.16l-.19.12a.66.66,0,0,0-.25.53V12a.3.3,0,0,1-.3.29H24.1a.3.3,0,0,1-.3-.29V8.15A.24.24,0,0,1,24,7.91h.14a.23.23,0,0,1,.21.14h0a.29.29,0,0,0,.44.11,1.44,1.44,0,0,1,1-.33c1,0,1.43.58,1.43,1.74V12a.29.29,0,0,1-.29.29Z"/><path class="cls-1" d="M28.69,7.31V12a.26.26,0,0,1-.26.26h-.28a.27.27,0,0,1-.27-.26V7.31A.27.27,0,0,0,27.62,7H26.25A.26.26,0,0,1,26,6.78v-.2a.27.27,0,0,1,.26-.27h4.16a.27.27,0,0,1,.26.27v.2a.26.26,0,0,1-.26.26H29A.27.27,0,0,0,28.69,7.31Z"/><path class="cls-1" d="M31.71,12.26a.14.14,0,0,1-.14-.14v-2a.92.92,0,0,0-.19-.62.68.68,0,0,0-.54-.23.94.94,0,0,0-.46.14,1,1,0,0,0-.27.21.26.26,0,0,0-.07.19v2.36a.15.15,0,0,1-.15.14h0a.47.47,0,0,1-.47-.48V7.56a.22.22,0,0,1,.22-.22h.17a.23.23,0,0,1,.23.23v1a.27.27,0,0,0,.39.25h0A1.4,1.4,0,0,1,31,8.7a1.07,1.07,0,0,1,.87.37,1.46,1.46,0,0,1,.31,1v1.71a.47.47,0,0,1-.48.48Z"/><path class="cls-1" d="M36.13,10.08H34a.48.48,0,0,0-.46.62,1.27,1.27,0,0,0,.33.55,1.29,1.29,0,0,0,1,.36,1.74,1.74,0,0,0,.84-.2.32.32,0,0,1,.44.12h0a.33.33,0,0,1-.13.45,1.69,1.69,0,0,1-.27.11,3,3,0,0,1-1,.17,2,2,0,0,1-1.4-.55,2.2,2.2,0,0,1-.63-1.65,2.31,2.31,0,0,1,.65-1.73,1.89,1.89,0,0,1,1.39-.58,2,2,0,0,1,1.45.52,1.77,1.77,0,0,1,.52,1.34h0A.48.48,0,0,1,36.13,10.08ZM34.67,8.4a1.2,1.2,0,0,0-.86.33,1.68,1.68,0,0,0-.18.21.37.37,0,0,0,.31.58h1.45A.37.37,0,0,0,35.73,9a1.51,1.51,0,0,0-.18-.26A1.15,1.15,0,0,0,34.67,8.4Z"/><path class="cls-1" d="M41.17,12.26h0a.25.25,0,0,1-.23-.16L39.75,8.67a.18.18,0,0,0-.34,0l-1.13,3.51a.11.11,0,0,1-.11.08h0A.24.24,0,0,1,38,12.1L36.28,6.73a.38.38,0,0,1,.36-.5h0a.45.45,0,0,1,.42.31L38,9.81a.18.18,0,0,0,.34,0l1.1-3.49a.14.14,0,0,1,.14-.1h0a.25.25,0,0,1,.23.17l1.06,3.41a.18.18,0,0,0,.34,0l1-3.27a.43.43,0,0,1,.41-.31h0a.37.37,0,0,1,.36.49l-1.67,5.46A.12.12,0,0,1,41.17,12.26Z"/><path class="cls-1" d="M45.42,12a.29.29,0,0,0-.41-.05,1.91,1.91,0,0,1-1.17.33,1.22,1.22,0,0,1-.89-.37,1.25,1.25,0,0,1-.37-.92,1.35,1.35,0,0,1,.58-1.12,2.27,2.27,0,0,1,1.47-.46h.13A.33.33,0,0,0,45.11,9a.83.83,0,0,0-.87-.53,1.72,1.72,0,0,0-.92.23A.21.21,0,0,1,43,8.59h0a.48.48,0,0,1,.24-.66l.16,0a2.27,2.27,0,0,1,.74-.13,1.87,1.87,0,0,1,1.38.43A1.86,1.86,0,0,1,46,9.55v1.56a.89.89,0,0,0,.22.67.38.38,0,0,1,.12.27h0a.21.21,0,0,1-.22.2,1.25,1.25,0,0,1-.49-.13A.55.55,0,0,1,45.42,12Zm-.23-1.49a.53.53,0,0,0-.51-.53h0a1.46,1.46,0,0,0-1,.3.89.89,0,0,0-.37.71c0,.46.27.68.8.68a1.25,1.25,0,0,0,.89-.39.51.51,0,0,0,.15-.37Z"/><path class="cls-1" d="M48.3,13a1.38,1.38,0,0,1-.63.69,2,2,0,0,1-.68.24.33.33,0,0,1-.39-.34h0a.33.33,0,0,1,.28-.34,1.4,1.4,0,0,0,.54-.2.66.66,0,0,0,.35-.55,1.94,1.94,0,0,0-.13-.71c-.08-.23-.19-.52-.32-.86l-1-2.56a.34.34,0,0,1,.32-.46h0A.33.33,0,0,1,47,8.1l.86,2.25a.35.35,0,0,0,.65,0l.76-2.23a.34.34,0,0,1,.32-.23h.06a.34.34,0,0,1,.32.46Z"/></svg>